<?xml version="1.0" encoding="utf-8"?>
<!-- Generator: Adobe Illustrator 16.0.0, SVG Export Plug-In . SVG Version: 6.00 Build 0)  -->
<!DOCTYPE svg PUBLIC "-//W3C//DTD SVG 1.1//EN" "http://www.w3.org/Graphics/SVG/1.1/DTD/svg11.dtd">
<svg version="1.1" id="Calque_1" xmlns="http://www.w3.org/2000/svg" xmlns:xlink="http://www.w3.org/1999/xlink" x="0px" y="0px"
	 width="48.263px" height="48.264px" viewBox="0 0 48.263 48.264" enable-background="new 0 0 48.263 48.264" xml:space="preserve">
<g>
	<defs>
		<path id="SVGID_1_" d="M0,5.363v37.538c0,2.947,2.388,5.362,5.361,5.362H42.9c2.949,0,5.362-2.415,5.362-5.362V5.363
			C48.262,2.412,45.849,0,42.9,0H5.361C2.388,0,0,2.412,0,5.363z"/>
	</defs>
	<clipPath id="SVGID_2_">
		<use xlink:href="#SVGID_1_"  overflow="visible"/>
	</clipPath>
	<circle clip-path="url(#SVGID_2_)" fill="none" cx="24.029" cy="24.195" r="24.164"/>
	<g clip-path="url(#SVGID_2_)">
		<linearGradient id="SVGID_3_" gradientUnits="userSpaceOnUse" x1="0" y1="24.1318" x2="48.2622" y2="24.1318">
			<stop  offset="0" style="stop-color:#E8D724"/>
			<stop  offset="1" style="stop-color:#E8A123"/>
		</linearGradient>
		<path fill="url(#SVGID_3_)" d="M0,5.363v37.538c0,2.947,2.388,5.362,5.361,5.362H42.9c2.949,0,5.362-2.415,5.362-5.362V5.363
			C48.262,2.412,45.849,0,42.9,0H5.361C2.388,0,0,2.412,0,5.363z"/>
		<g>
			<path fill="#151821" d="M38.895,17.159c0,0.417-0.02,0.829-0.051,1.238c-0.059,0.694-0.163,1.374-0.312,2.036
				c-0.206,0.922-0.499,1.809-0.868,2.654c-0.35,0.806-0.77,1.574-1.25,2.295c-0.383,0.576-0.805,1.122-1.262,1.637
				c-0.113,0.127-0.227,0.252-0.344,0.373c-0.38,0.404-0.784,0.781-1.206,1.135c-0.108,0.093-0.217,0.183-0.327,0.27
				c-0.525,0.42-1.084,0.806-1.664,1.148c-0.18,0.109-0.365,0.211-0.55,0.313c-1.489,0.803-3.132,1.357-4.87,1.607
				c-0.705,0.106-1.428,0.158-2.162,0.158c-0.723,0-1.434-0.052-2.128-0.152c-1.753-0.252-3.41-0.809-4.91-1.613
				c-0.245-0.135-0.488-0.272-0.723-0.418c-0.716-0.438-1.389-0.934-2.018-1.486c-0.069-0.059-0.14-0.119-0.206-0.182
				c-0.47-0.426-0.914-0.883-1.326-1.365c-0.077-0.09-0.153-0.18-0.227-0.272c-0.621-0.763-1.167-1.587-1.629-2.464
				c-0.045-0.084-0.087-0.168-0.129-0.253c-0.359-0.716-0.664-1.466-0.906-2.242c-0.048-0.155-0.093-0.312-0.135-0.468
				c-0.222-0.803-0.377-1.632-0.459-2.484c-0.013-0.143-0.027-0.285-0.037-0.431c-0.021-0.341-0.035-0.687-0.035-1.032
				c0-0.209,0.005-0.415,0.014-0.621c0.002-0.104,0.008-0.203,0.016-0.307c0.04-0.674,0.126-1.336,0.255-1.982
				c0.029-0.146,0.061-0.291,0.093-0.434c0.119-0.516,0.264-1.021,0.436-1.514c0.061-0.18,0.126-0.359,0.195-0.533
				c0.208-0.541,0.452-1.066,0.721-1.574c0.214-0.404,0.446-0.797,0.697-1.178c0.161-0.248,0.33-0.488,0.507-0.726
				c0.192-0.262,0.396-0.515,0.607-0.761c0.37-0.436,0.763-0.848,1.178-1.23c0.143-0.135,0.285-0.264,0.434-0.391
				c0.557-0.483,1.148-0.925,1.774-1.318c0.211-0.135,0.425-0.264,0.644-0.385c0.317-0.18,0.642-0.35,0.974-0.505
				c0.206-0.098,0.415-0.19,0.626-0.277c0.623-0.259,1.265-0.476,1.928-0.649c0.332-0.088,0.671-0.161,1.014-0.225
				c0.518-0.098,1.043-0.169,1.58-0.211c0.269-0.021,0.541-0.035,0.815-0.04c0.119-0.003,0.238-0.005,0.359-0.005
				c0.285,0,0.568,0.008,0.848,0.023c0.179,0.011,0.359,0.023,0.536,0.04c0.747,0.068,1.476,0.192,2.185,0.37
				c0.164,0.039,0.324,0.082,0.485,0.127c0.8,0.227,1.571,0.518,2.311,0.868c0.212,0.101,0.417,0.204,0.624,0.313
				c0.385,0.204,0.757,0.426,1.121,0.664c0.064,0.042,0.13,0.085,0.193,0.127c0.507,0.344,0.996,0.719,1.455,1.122
				c0.307,0.262,0.597,0.538,0.877,0.829c0.438,0.446,0.848,0.92,1.223,1.418c0.076,0.098,0.15,0.195,0.219,0.297
				c0.37,0.512,0.705,1.045,1.007,1.603c0.056,0.101,0.108,0.203,0.157,0.304c0.494,0.964,0.885,1.986,1.16,3.055
				c0.14,0.545,0.248,1.1,0.325,1.664C38.847,15.785,38.895,16.467,38.895,17.159z"/>
			<path fill="#151821" d="M14.927,27.207c0,0.014,0,0.027-0.002,0.039c-0.013,0.479-0.28,0.891-0.673,1.107
				c-0.051,0.029-0.101,0.056-0.156,0.074c-0.147,0.061-0.311,0.092-0.48,0.092c-0.724,0-1.31-0.588-1.31-1.313
				c0-0.123,0.018-0.245,0.05-0.361c0.032-0.11,0.079-0.217,0.137-0.312c0.227-0.38,0.644-0.636,1.123-0.636
				c0.119,0,0.232,0.016,0.34,0.045c0.169,0.042,0.322,0.118,0.455,0.221c0.113,0.088,0.211,0.19,0.293,0.309
				C14.845,26.682,14.927,26.936,14.927,27.207z"/>
			<path fill="#151821" d="M11.333,13.071c0,0.254-0.074,0.491-0.201,0.692c-0.229,0.372-0.642,0.618-1.111,0.618
				c-0.207,0-0.399-0.048-0.573-0.133c-0.095-0.045-0.182-0.103-0.261-0.167c-0.291-0.239-0.476-0.604-0.476-1.011
				c0-0.586,0.383-1.08,0.908-1.249c0.127-0.043,0.262-0.063,0.402-0.063c0.05,0,0.1,0.003,0.151,0.011
				c0.586,0.063,1.053,0.516,1.143,1.094C11.328,12.932,11.333,13,11.333,13.071z"/>
			<path fill="#151821" d="M18.68,4.313c0,0.285-0.093,0.551-0.247,0.766c-0.18,0.25-0.449,0.436-0.758,0.51
				c-0.098,0.023-0.201,0.037-0.306,0.037c-0.628,0-1.154-0.441-1.281-1.033c-0.021-0.09-0.032-0.186-0.032-0.28
				c0-0.116,0.016-0.227,0.045-0.333c0.146-0.562,0.66-0.977,1.268-0.977c0.14,0,0.272,0.021,0.398,0.061
				c0.22,0.072,0.412,0.195,0.565,0.362C18.548,3.657,18.68,3.969,18.68,4.313z"/>
			<circle fill="#151821" cx="31.024" cy="4.875" r="1.311"/>
			<path fill="#151821" d="M11.063,17.416c0,0.166-0.032,0.327-0.09,0.473c-0.189,0.49-0.665,0.84-1.223,0.84
				c-0.184,0-0.359-0.037-0.517-0.105c-0.108-0.049-0.208-0.111-0.301-0.184c-0.298-0.24-0.491-0.609-0.491-1.023
				c0-0.447,0.222-0.84,0.562-1.078c0.058-0.039,0.122-0.076,0.188-0.105c0.169-0.082,0.358-0.127,0.56-0.127
				c0.555,0,1.03,0.344,1.22,0.83C11.032,17.082,11.063,17.246,11.063,17.416z"/>
			<circle fill="#151821" cx="34.066" cy="27.754" r="1.311"/>
			<circle fill="#151821" cx="35.415" cy="26.229" r="1.311"/>
			<circle fill="#151821" cx="32.333" cy="28.851" r="1.311"/>
			<path fill="#151821" d="M25.442,2.635c0,0.488-0.266,0.914-0.662,1.139c-0.193,0.11-0.415,0.174-0.649,0.174
				c-0.035,0-0.066,0-0.101-0.006c-0.257-0.018-0.492-0.11-0.684-0.258c-0.32-0.238-0.525-0.621-0.525-1.049
				c0-0.104,0.01-0.201,0.034-0.296c0.068-0.306,0.249-0.57,0.491-0.749c0.192-0.148,0.427-0.241,0.684-0.259
				c0.034-0.006,0.065-0.006,0.101-0.006c0.449,0,0.845,0.225,1.079,0.567c0.096,0.139,0.167,0.297,0.204,0.465
				C25.432,2.447,25.442,2.539,25.442,2.635z"/>
			<circle fill="#151821" cx="36.725" cy="9.207" r="1.311"/>
			<path fill="#151821" d="M14.251,24.918c0,0.214-0.035,0.418-0.101,0.609c-0.047,0.148-0.114,0.285-0.195,0.414
				c-0.272,0.437-0.716,0.756-1.236,0.865c-0.116,0.025-0.241,0.039-0.364,0.039c-0.011,0.003-0.024,0.003-0.035,0.003
				c-1.067,0-1.933-0.864-1.933-1.931c0-0.314,0.077-0.613,0.209-0.874c0.04-0.079,0.084-0.156,0.138-0.228
				c0.348-0.502,0.929-0.832,1.586-0.832c0.056,0,0.111,0.003,0.167,0.008c0.399,0.035,0.764,0.191,1.056,0.432
				C13.977,23.776,14.251,24.316,14.251,24.918z"/>
			<path fill="#151821" d="M17.893,27.937c0,0.851-0.549,1.571-1.313,1.827c-0.101,0.035-0.203,0.061-0.312,0.077
				c-0.101,0.019-0.203,0.026-0.309,0.026c-0.898,0-1.65-0.61-1.865-1.439c-0.023-0.082-0.042-0.169-0.05-0.256
				c-0.011-0.076-0.016-0.156-0.016-0.235c0-0.534,0.217-1.014,0.563-1.362c0.037-0.037,0.074-0.072,0.11-0.101
				c0.339-0.296,0.776-0.47,1.257-0.47C17.026,26.004,17.893,26.869,17.893,27.937z"/>
			<path fill="#151821" d="M13.263,10.93c0,1.066-0.863,1.934-1.93,1.934h-0.019c-0.52-0.006-0.993-0.217-1.338-0.561
				c-0.144-0.137-0.265-0.301-0.357-0.48C9.479,11.555,9.4,11.252,9.4,10.93c0-0.8,0.488-1.486,1.183-1.777
				c0.23-0.1,0.483-0.153,0.75-0.153c0.087,0,0.171,0.006,0.256,0.019c0.855,0.111,1.532,0.781,1.65,1.635
				C13.255,10.742,13.263,10.835,13.263,10.93z"/>
			<circle fill="#151821" cx="29.091" cy="3.947" r="1.932"/>
			<path fill="#151821" d="M21.563,3.562c0,0.249-0.047,0.486-0.134,0.706c-0.28,0.718-0.979,1.228-1.798,1.228
				c-0.452,0-0.869-0.156-1.197-0.417c-0.414-0.326-0.689-0.816-0.726-1.376C17.702,3.657,17.7,3.609,17.7,3.562
				c0-0.171,0.023-0.341,0.068-0.499c0.217-0.823,0.967-1.432,1.862-1.432c0.298,0,0.581,0.069,0.832,0.19
				c0.338,0.159,0.621,0.412,0.813,0.729C21.458,2.844,21.563,3.189,21.563,3.562z"/>
			<path fill="#151821" d="M12.305,19.724c0,0.46-0.161,0.882-0.431,1.212c-0.354,0.438-0.895,0.719-1.502,0.719
				c-0.188,0-0.372-0.027-0.544-0.08c-0.135-0.037-0.267-0.092-0.388-0.16c-0.595-0.328-0.998-0.962-0.998-1.691
				c0-0.493,0.185-0.941,0.491-1.283c0.076-0.092,0.166-0.176,0.264-0.248c0.325-0.253,0.734-0.401,1.175-0.401
				c0.211,0,0.412,0.034,0.603,0.098C11.745,18.139,12.305,18.868,12.305,19.724z"/>
			<circle fill="#151821" cx="34.3" cy="7.811" r="1.932"/>
			<circle fill="#151821" cx="37.138" cy="12.023" r="1.932"/>
			<path fill="#151821" d="M17.7,5.878c0,1.067-0.866,1.933-1.933,1.933c-0.156,0-0.306-0.018-0.452-0.055
				c-0.713-0.17-1.273-0.736-1.434-1.455c-0.032-0.135-0.047-0.278-0.047-0.423c0-0.034,0-0.069,0.005-0.103
				c0.05-1.02,0.895-1.828,1.928-1.828c0.114,0,0.227,0.01,0.335,0.031c0.227,0.037,0.441,0.116,0.631,0.228
				c0.5,0.288,0.856,0.789,0.943,1.382C17.692,5.682,17.7,5.777,17.7,5.878z"/>
			<path fill="#151821" d="M12.611,22.349c0,0.227-0.045,0.446-0.124,0.644c-0.256,0.632-0.876,1.078-1.601,1.078h-0.023
				c-0.093-0.002-0.18-0.011-0.267-0.026c-0.814-0.138-1.434-0.845-1.434-1.695c0-0.347,0.101-0.665,0.278-0.935
				c0.071-0.111,0.155-0.215,0.253-0.307c0.31-0.302,0.729-0.484,1.193-0.484c0.367,0,0.708,0.117,0.988,0.313
				C12.32,21.247,12.611,21.762,12.611,22.349z"/>
			<path fill="#151821" d="M14.029,9.205c0,0.607-0.314,1.141-0.79,1.447c-0.27,0.178-0.591,0.277-0.935,0.277
				c-0.584,0-1.099-0.291-1.413-0.734c-0.195-0.279-0.312-0.623-0.312-0.99c0-0.018,0-0.034,0.003-0.053
				c0.021-0.787,0.576-1.439,1.313-1.619c0.13-0.033,0.267-0.05,0.41-0.05c0.137,0,0.271,0.017,0.398,0.048
				c0.745,0.177,1.302,0.834,1.324,1.624C14.029,9.171,14.029,9.189,14.029,9.205z"/>
			<circle fill="#151821" cx="26.386" cy="3.151" r="1.723"/>
			<path fill="#151821" d="M12.112,15.313c0,0.288-0.069,0.558-0.193,0.795c-0.198,0.384-0.536,0.682-0.948,0.826
				c-0.182,0.067-0.38,0.104-0.583,0.104c-0.472,0-0.901-0.19-1.212-0.499c-0.063-0.063-0.122-0.13-0.172-0.201
				c-0.213-0.284-0.337-0.639-0.337-1.024c0-0.483,0.198-0.919,0.52-1.23c0.105-0.105,0.224-0.194,0.353-0.267
				c0.251-0.143,0.539-0.225,0.848-0.225c0.267,0,0.521,0.061,0.745,0.172c0.243,0.113,0.454,0.282,0.618,0.494
				C11.977,14.548,12.112,14.914,12.112,15.313z"/>
			<circle fill="#151821" cx="38.272" cy="16.773" r="1.723"/>
			<circle fill="#151821" cx="37.138" cy="21.446" r="1.723"/>
			<path fill="#151821" d="M15.339,7.483c0,0.092-0.008,0.185-0.024,0.272c-0.105,0.687-0.621,1.236-1.288,1.398
				c-0.132,0.035-0.27,0.051-0.412,0.051c-0.658,0-1.23-0.369-1.519-0.914c-0.124-0.227-0.196-0.482-0.201-0.758
				c-0.002-0.016-0.002-0.035-0.002-0.05c0-0.953,0.771-1.725,1.722-1.725c0.077,0,0.15,0.005,0.224,0.017
				c0.167,0.021,0.328,0.065,0.476,0.135C14.919,6.174,15.339,6.778,15.339,7.483z"/>
			<circle fill="#151821" cx="33.057" cy="6.157" r="1.724"/>
			<path fill="#151821" d="M23.702,2.635c0,0.394-0.132,0.758-0.356,1.049c-0.315,0.412-0.809,0.676-1.366,0.676
				c-0.192,0-0.38-0.031-0.552-0.092c-0.642-0.215-1.111-0.795-1.167-1.492c-0.003-0.048-0.005-0.093-0.005-0.141
				c0-0.293,0.074-0.57,0.206-0.813c0.288-0.541,0.861-0.909,1.519-0.909c0.557,0,1.051,0.266,1.366,0.677
				c0.158,0.204,0.271,0.446,0.324,0.71C23.692,2.408,23.702,2.519,23.702,2.635z"/>
			<path fill="#B08875" d="M38.037,50.792v0.003H10.021v-0.003c0-3.884,1.579-7.396,4.135-9.932c0.095-0.095,0.19-0.187,0.288-0.28
				c0.391-0.363,0.8-0.707,1.228-1.027c0.132-0.098,0.267-0.195,0.401-0.287c0.278-0.19,0.563-0.373,0.853-0.541
				c0.137-0.082,0.278-0.162,0.417-0.238c0.002-0.006,0.008-0.006,0.008-0.006c0.113-0.061,0.225-0.126,0.335-0.195
				c0.084-0.047,0.166-0.098,0.246-0.152c0.243-0.156,0.48-0.325,0.705-0.505v-0.003c1.275-1.017,2.263-2.377,2.823-3.942
				c0.208-0.579,0.356-1.187,0.441-1.812c0.05-0.386,0.076-0.779,0.076-1.178l2.052,0.01l2.089,0.012
				c0,0.391,0.025,0.773,0.074,1.15c0.081,0.623,0.227,1.23,0.43,1.807c0.557,1.568,1.539,2.934,2.813,3.958
				c0.094,0.074,0.189,0.148,0.288,0.22c0,0,0.002,0,0.005,0.003c0.074,0.058,0.15,0.11,0.228,0.161
				c0.021,0.018,0.045,0.034,0.068,0.047c0.021,0.016,0.04,0.029,0.062,0.043c0.007,0.006,0.016,0.01,0.023,0.016
				c0.086,0.059,0.177,0.113,0.267,0.169c0.108,0.065,0.219,0.132,0.33,0.192c0.019,0.006,0.034,0.014,0.048,0.024
				c0.123,0.069,0.248,0.14,0.369,0.214c0.161,0.092,0.319,0.189,0.475,0.291c0.278,0.18,0.545,0.364,0.809,0.564h0.006
				c0.533,0.398,1.037,0.834,1.508,1.305C36.465,43.414,38.037,46.916,38.037,50.792z"/>
			<path fill="#EFC8A2" d="M38.037,50.792H10.021c0-3.884,1.579-7.396,4.135-9.932c0.095-0.095,0.19-0.187,0.288-0.28
				c0.391-0.363,0.8-0.707,1.228-1.027c0.132-0.098,0.267-0.195,0.401-0.287c0.278-0.19,0.56-0.373,0.851-0.544
				c0.137-0.081,0.277-0.161,0.417-0.237c0.005-0.006,0.011-0.004,0.011-0.004v-0.002c0.225-0.124,0.446-0.259,0.66-0.401
				c0.101-0.065,0.198-0.134,0.295-0.208c0.011-0.006,0.019-0.014,0.029-0.02c0.071-0.053,0.143-0.107,0.214-0.166
				c0.026-0.021,0.053-0.043,0.079-0.063h0.002c0.002,0.003,0.002,0.003,0.006,0.005c0.169,0.176,0.348,0.338,0.533,0.497
				c0,0.003,0,0.003,0.003,0.003c0.467,0.393,0.982,0.731,1.537,1.004c0.999,0.49,2.121,0.768,3.309,0.771h0.021
				c2.112,0,4.022-0.873,5.396-2.27l0.002-0.002l0.003-0.004c0.098,0.082,0.198,0.159,0.302,0.236
				c0.068,0.053,0.14,0.102,0.213,0.152c0.021,0.016,0.045,0.032,0.069,0.048c0.021,0.016,0.039,0.028,0.061,0.042
				c0.008,0.006,0.016,0.011,0.024,0.016c0.086,0.059,0.176,0.113,0.267,0.169c0.108,0.066,0.218,0.13,0.33,0.19
				c0.018,0.006,0.032,0.016,0.048,0.023c0.123,0.069,0.25,0.141,0.371,0.215c0.162,0.094,0.32,0.192,0.473,0.293
				c0.277,0.177,0.545,0.364,0.809,0.563h0.006c0.533,0.398,1.037,0.837,1.508,1.307C36.465,43.414,38.037,46.916,38.037,50.792z"/>
			<g>
				<path fill="#553F37" d="M31.125,38.717l-0.002,0.002l-0.289,0.293c-1.811,1.846-4.228,2.86-6.805,2.863
					c-0.003,0-0.003,0-0.006,0c-2.606-0.006-5.02-1.025-6.823-2.868l-0.275-0.282l-0.002-0.003c0.137-0.081,0.277-0.161,0.417-0.237
					c0.005-0.006,0.01-0.004,0.01-0.004v-0.002c0.114-0.063,0.225-0.127,0.335-0.193c0.082-0.05,0.164-0.1,0.245-0.152
					c0.027-0.02,0.054-0.037,0.08-0.057c0.101-0.065,0.2-0.134,0.295-0.208c0.011-0.005,0.019-0.013,0.029-0.019
					c0.071-0.055,0.146-0.11,0.214-0.166c0.026-0.021,0.053-0.043,0.079-0.063c0.002,0.003,0.002,0.003,0.005,0.005h0.002v0.003
					c0.17,0.175,0.346,0.338,0.534,0.493c0,0.004,0,0.004,0.002,0.004c0.467,0.393,0.983,0.734,1.537,1.003
					c0.999,0.491,2.121,0.769,3.309,0.771h0.022c2.112,0,4.021-0.872,5.395-2.269l0.003-0.003l0.003-0.003
					c0.092,0.077,0.185,0.15,0.283,0.225c0,0,0.002,0,0.005,0.003c0.002,0.003,0.008,0.005,0.014,0.008
					c0.068,0.053,0.14,0.103,0.213,0.153c0.021,0.016,0.045,0.031,0.069,0.047c0.021,0.017,0.039,0.029,0.061,0.043
					c0.008,0.006,0.016,0.01,0.024,0.016c0.086,0.059,0.176,0.113,0.267,0.169c0.108,0.066,0.218,0.13,0.33,0.19
					c0.018,0.006,0.032,0.016,0.048,0.023C30.877,38.571,31.004,38.643,31.125,38.717z"/>
			</g>
			<path fill="#B08875" d="M34.781,14.521v6.295c0,0.592-0.042,1.176-0.122,1.748c-0.193,1.427-0.617,2.781-1.203,4.029
				c-0.172,0.367-0.357,0.727-0.555,1.076c-0.045,0.079-0.09,0.158-0.136,0.234c-0.401,0.676-0.847,1.315-1.325,1.904
				c-0.121,0.153-0.248,0.304-0.378,0.449c-1.354,1.555-2.929,2.74-4.438,3.414c-0.906,0.401-1.794,0.621-2.594,0.621
				c-0.795,0-1.671-0.214-2.57-0.61c-1.519-0.671-3.103-1.862-4.468-3.425c-0.14-0.162-0.277-0.325-0.412-0.494
				c-0.615-0.766-1.178-1.61-1.656-2.518c-0.116-0.221-0.227-0.445-0.333-0.673c-0.063-0.134-0.124-0.271-0.182-0.409
				c-0.092-0.209-0.177-0.423-0.259-0.637c-0.253-0.676-0.459-1.381-0.608-2.104c-0.058-0.283-0.108-0.568-0.145-0.859
				c-0.08-0.572-0.122-1.156-0.122-1.748v-6.295H34.781L34.781,14.521z"/>
			<path fill="#151821" d="M13.014,22.619L13.014,22.619c0.789,0,1.428-0.64,1.428-1.429v-6.859h-1.428V22.619z"/>
			<path fill="#151821" d="M33.616,14.331h1.429v8.288l0,0c-0.788,0-1.429-0.64-1.429-1.429V14.331z"/>
			<circle fill="#151821" cx="21.354" cy="14.772" r="1.723"/>
			<circle fill="#151821" cx="17.369" cy="14.382" r="1.724"/>
			<circle fill="#151821" cx="13.277" cy="15.05" r="1.724"/>
			<circle fill="#151821" cx="26.386" cy="14.585" r="1.724"/>
			<circle fill="#151821" cx="31.597" cy="14.585" r="1.724"/>
			<circle fill="#151821" cx="35.172" cy="16.218" r="1.723"/>
			<circle fill="#151821" cx="24.029" cy="14.901" r="1.312"/>
			<circle fill="#151821" cx="15.146" cy="14.771" r="1.311"/>
			<circle fill="#151821" cx="19.63" cy="14.771" r="1.311"/>
			<circle fill="#151821" cx="29.091" cy="15.184" r="1.311"/>
			<circle fill="#151821" cx="33.321" cy="15.184" r="1.311"/>
			<path fill="#1A1A1A" d="M33.077,17.779c0-0.043-0.031-0.079-0.073-0.085c-0.364-0.056-1.999-0.28-3.755-0.28
				c-1.997,0-4.571,0.627-5.021,0.627h-0.398c-0.209,0-0.88-0.139-1.738-0.281c-0.985-0.166-2.216-0.346-3.279-0.346
				c-1.287,0-2.51,0.121-3.212,0.206c-0.259,0.032-0.446,0.059-0.544,0.073c-0.045,0.006-0.077,0.043-0.077,0.085l-0.021,1.073
				c0,0.039,0.023,0.07,0.058,0.086l0.122,0.043c0.18,0.068,0.164,3.298,1.127,4.106c0.573,0.476,1.083,0.747,3.228,0.747
				c1.244,0,2.025-0.336,2.767-1.336c0.536-0.719,1.009-2.42,1.009-2.42c0.145-0.699,0.665-0.755,0.749-0.76
				c0.006,0,0.011,0,0.011,0c0.016,0,0.605,0.01,0.758,0.76c0,0,0.477,1.701,1.01,2.42c0.741,1,1.523,1.336,2.767,1.336
				c2.145,0,2.654-0.271,3.228-0.747c0.964-0.809,0.947-4.038,1.127-4.106l0.122-0.043c0.034-0.016,0.058-0.047,0.058-0.086
				L33.077,17.779z"/>
		</g>
	</g>
</g>
</svg>
